<svg width="24" height="24" viewBox="0 0 24 24" fill="none" xmlns="http://www.w3.org/2000/svg">
<g clip-path="url(#clip0_168_449)">
<path d="M20.117 7.62477C19.9233 7.60239 19.7272 7.63715 19.553 7.72477L15 9.99977V13.9998L19.553 16.2748C19.7053 16.3509 19.8744 16.3868 20.0445 16.3792C20.2145 16.3717 20.3799 16.3208 20.5248 16.2315C20.6697 16.1422 20.7894 16.0173 20.8725 15.8688C20.9557 15.7203 20.9996 15.553 21 15.3828V8.61677C20.9997 8.37201 20.9097 8.13585 20.747 7.95302C20.5842 7.7702 20.3601 7.65341 20.117 7.62477Z" fill="black"/>
<path d="M5 5C3.355 5 2 6.355 2 8V16C2 17.645 3.355 19 5 19H13C14.645 19 16 17.645 16 16V8C16 6.355 14.645 5 13 5H5Z" fill="black"/>
</g>
<defs>
<clipPath id="clip0_168_449">
<rect width="24" height="24" fill="white"/>
</clipPath>
</defs>
</svg>
